<mxfile host="app.diagrams.net" modified="2022-10-07T16:54:46.651Z" agent="5.0 (X11; Ubuntu)" etag="Pq0u0A0acaNhPke5iUsK" version="20.4.0" type="github">
  <diagram id="R2lEEEUBdFMjLlhIrx00" name="Page-1">
    <mxGraphModel dx="1377" dy="771" grid="1" gridSize="10" guides="1" tooltips="1" connect="1" arrows="1" fold="1" page="1" pageScale="1" pageWidth="850" pageHeight="1100" math="0" shadow="0" extFonts="Permanent Marker^https://fonts.googleapis.com/css?family=Permanent+Marker">
      <root>
        <mxCell id="0" />
        <mxCell id="1" parent="0" />
        <mxCell id="CP_bmAPizi7PvoLeCJPH-1" value="camionero" style="whiteSpace=wrap;html=1;align=center;fillColor=#e1d5e7;strokeColor=#9673a6;" parent="1" vertex="1">
          <mxGeometry x="220" y="200" width="100" height="40" as="geometry" />
        </mxCell>
        <mxCell id="CP_bmAPizi7PvoLeCJPH-2" value="&lt;div&gt;camión&lt;/div&gt;" style="whiteSpace=wrap;html=1;align=center;fillColor=#e1d5e7;strokeColor=#9673a6;" parent="1" vertex="1">
          <mxGeometry x="520" y="100" width="100" height="40" as="geometry" />
        </mxCell>
        <mxCell id="CP_bmAPizi7PvoLeCJPH-4" value="&lt;div&gt;paquete&lt;/div&gt;" style="whiteSpace=wrap;html=1;align=center;fillColor=#e1d5e7;strokeColor=#9673a6;" parent="1" vertex="1">
          <mxGeometry x="520" y="300" width="100" height="40" as="geometry" />
        </mxCell>
        <mxCell id="Fy4e7EndvKac3T4AfF9Q-44" style="edgeStyle=orthogonalEdgeStyle;rounded=0;orthogonalLoop=1;jettySize=auto;html=1;entryX=0.5;entryY=0;entryDx=0;entryDy=0;" parent="1" source="CP_bmAPizi7PvoLeCJPH-6" target="CP_bmAPizi7PvoLeCJPH-1" edge="1">
          <mxGeometry relative="1" as="geometry">
            <Array as="points">
              <mxPoint x="270" y="120" />
            </Array>
          </mxGeometry>
        </mxCell>
        <mxCell id="Fy4e7EndvKac3T4AfF9Q-45" style="edgeStyle=orthogonalEdgeStyle;rounded=0;orthogonalLoop=1;jettySize=auto;html=1;entryX=0;entryY=0.5;entryDx=0;entryDy=0;" parent="1" source="CP_bmAPizi7PvoLeCJPH-6" target="CP_bmAPizi7PvoLeCJPH-2" edge="1">
          <mxGeometry relative="1" as="geometry" />
        </mxCell>
        <mxCell id="CP_bmAPizi7PvoLeCJPH-6" value="conduce" style="shape=rhombus;perimeter=rhombusPerimeter;whiteSpace=wrap;html=1;align=center;fillColor=#fff2cc;strokeColor=#d6b656;" parent="1" vertex="1">
          <mxGeometry x="330" y="90" width="120" height="60" as="geometry" />
        </mxCell>
        <mxCell id="Fy4e7EndvKac3T4AfF9Q-40" style="edgeStyle=orthogonalEdgeStyle;rounded=0;orthogonalLoop=1;jettySize=auto;html=1;entryX=0;entryY=0.5;entryDx=0;entryDy=0;" parent="1" source="CP_bmAPizi7PvoLeCJPH-7" target="CP_bmAPizi7PvoLeCJPH-4" edge="1">
          <mxGeometry relative="1" as="geometry" />
        </mxCell>
        <mxCell id="CP_bmAPizi7PvoLeCJPH-7" value="transporta" style="shape=rhombus;perimeter=rhombusPerimeter;whiteSpace=wrap;html=1;align=center;fillColor=#fff2cc;strokeColor=#d6b656;" parent="1" vertex="1">
          <mxGeometry x="320" y="290" width="120" height="60" as="geometry" />
        </mxCell>
        <mxCell id="Fy4e7EndvKac3T4AfF9Q-1" value="dni" style="ellipse;whiteSpace=wrap;html=1;align=center;fontStyle=4;fillColor=#dae8fc;strokeColor=#6c8ebf;" parent="1" vertex="1">
          <mxGeometry x="70" y="80" width="100" height="40" as="geometry" />
        </mxCell>
        <mxCell id="Fy4e7EndvKac3T4AfF9Q-2" value="nombre" style="ellipse;whiteSpace=wrap;html=1;align=center;" parent="1" vertex="1">
          <mxGeometry x="70" y="130" width="100" height="40" as="geometry" />
        </mxCell>
        <mxCell id="Fy4e7EndvKac3T4AfF9Q-3" value="teléfono" style="ellipse;whiteSpace=wrap;html=1;align=center;" parent="1" vertex="1">
          <mxGeometry x="70" y="180" width="100" height="40" as="geometry" />
        </mxCell>
        <mxCell id="Fy4e7EndvKac3T4AfF9Q-4" value="dirección" style="ellipse;whiteSpace=wrap;html=1;align=center;" parent="1" vertex="1">
          <mxGeometry x="70" y="280" width="100" height="40" as="geometry" />
        </mxCell>
        <mxCell id="Fy4e7EndvKac3T4AfF9Q-8" value="salario" style="ellipse;whiteSpace=wrap;html=1;align=center;" parent="1" vertex="1">
          <mxGeometry x="70" y="330" width="100" height="40" as="geometry" />
        </mxCell>
        <mxCell id="Fy4e7EndvKac3T4AfF9Q-9" value="población" style="ellipse;whiteSpace=wrap;html=1;align=center;" parent="1" vertex="1">
          <mxGeometry x="70" y="230" width="100" height="40" as="geometry" />
        </mxCell>
        <mxCell id="Fy4e7EndvKac3T4AfF9Q-11" value="" style="endArrow=none;html=1;rounded=0;entryX=0;entryY=0.5;entryDx=0;entryDy=0;exitX=1;exitY=0.5;exitDx=0;exitDy=0;" parent="1" source="Fy4e7EndvKac3T4AfF9Q-8" target="CP_bmAPizi7PvoLeCJPH-1" edge="1">
          <mxGeometry width="50" height="50" relative="1" as="geometry">
            <mxPoint x="400" y="330" as="sourcePoint" />
            <mxPoint x="450" y="280" as="targetPoint" />
          </mxGeometry>
        </mxCell>
        <mxCell id="Fy4e7EndvKac3T4AfF9Q-13" value="" style="endArrow=none;html=1;rounded=0;exitX=1;exitY=0.5;exitDx=0;exitDy=0;" parent="1" source="Fy4e7EndvKac3T4AfF9Q-1" edge="1">
          <mxGeometry relative="1" as="geometry">
            <mxPoint x="60" y="219" as="sourcePoint" />
            <mxPoint x="220" y="219" as="targetPoint" />
          </mxGeometry>
        </mxCell>
        <mxCell id="Fy4e7EndvKac3T4AfF9Q-14" value="" style="endArrow=none;html=1;rounded=0;exitX=1;exitY=0.5;exitDx=0;exitDy=0;" parent="1" source="Fy4e7EndvKac3T4AfF9Q-2" edge="1">
          <mxGeometry relative="1" as="geometry">
            <mxPoint x="180" y="110" as="sourcePoint" />
            <mxPoint x="220" y="220" as="targetPoint" />
          </mxGeometry>
        </mxCell>
        <mxCell id="Fy4e7EndvKac3T4AfF9Q-15" value="" style="endArrow=none;html=1;rounded=0;entryX=1;entryY=0.5;entryDx=0;entryDy=0;" parent="1" target="Fy4e7EndvKac3T4AfF9Q-4" edge="1">
          <mxGeometry relative="1" as="geometry">
            <mxPoint x="220" y="220" as="sourcePoint" />
            <mxPoint x="240" y="239" as="targetPoint" />
          </mxGeometry>
        </mxCell>
        <mxCell id="Fy4e7EndvKac3T4AfF9Q-16" value="" style="endArrow=none;html=1;rounded=0;exitX=1;exitY=0.5;exitDx=0;exitDy=0;" parent="1" source="Fy4e7EndvKac3T4AfF9Q-3" edge="1">
          <mxGeometry relative="1" as="geometry">
            <mxPoint x="200" y="130" as="sourcePoint" />
            <mxPoint x="220" y="220" as="targetPoint" />
          </mxGeometry>
        </mxCell>
        <mxCell id="Fy4e7EndvKac3T4AfF9Q-17" value="" style="endArrow=none;html=1;rounded=0;exitX=1;exitY=0.5;exitDx=0;exitDy=0;" parent="1" source="Fy4e7EndvKac3T4AfF9Q-9" edge="1">
          <mxGeometry relative="1" as="geometry">
            <mxPoint x="210" y="140" as="sourcePoint" />
            <mxPoint x="220" y="220" as="targetPoint" />
          </mxGeometry>
        </mxCell>
        <mxCell id="Fy4e7EndvKac3T4AfF9Q-19" value="" style="endArrow=none;html=1;rounded=0;exitX=0.5;exitY=1;exitDx=0;exitDy=0;entryX=0;entryY=0.5;entryDx=0;entryDy=0;" parent="1" source="CP_bmAPizi7PvoLeCJPH-1" target="CP_bmAPizi7PvoLeCJPH-7" edge="1">
          <mxGeometry relative="1" as="geometry">
            <mxPoint x="340" y="210" as="sourcePoint" />
            <mxPoint x="500" y="210" as="targetPoint" />
            <Array as="points">
              <mxPoint x="270" y="300" />
              <mxPoint x="270" y="320" />
            </Array>
          </mxGeometry>
        </mxCell>
        <mxCell id="Fy4e7EndvKac3T4AfF9Q-22" value="código" style="ellipse;whiteSpace=wrap;html=1;align=center;fontStyle=4;fillColor=#dae8fc;strokeColor=#6c8ebf;" parent="1" vertex="1">
          <mxGeometry x="410" y="380" width="100" height="40" as="geometry" />
        </mxCell>
        <mxCell id="Fy4e7EndvKac3T4AfF9Q-23" value="destinatario" style="ellipse;whiteSpace=wrap;html=1;align=center;" parent="1" vertex="1">
          <mxGeometry x="520" y="380" width="100" height="40" as="geometry" />
        </mxCell>
        <mxCell id="Fy4e7EndvKac3T4AfF9Q-24" value="descripción" style="ellipse;whiteSpace=wrap;html=1;align=center;" parent="1" vertex="1">
          <mxGeometry x="630" y="380" width="100" height="40" as="geometry" />
        </mxCell>
        <mxCell id="Fy4e7EndvKac3T4AfF9Q-26" value="dirección" style="ellipse;whiteSpace=wrap;html=1;align=center;" parent="1" vertex="1">
          <mxGeometry x="520" y="440" width="100" height="40" as="geometry" />
        </mxCell>
        <mxCell id="Fy4e7EndvKac3T4AfF9Q-27" value="" style="endArrow=none;html=1;rounded=0;exitX=0.5;exitY=1;exitDx=0;exitDy=0;entryX=0.5;entryY=0;entryDx=0;entryDy=0;" parent="1" source="CP_bmAPizi7PvoLeCJPH-4" target="Fy4e7EndvKac3T4AfF9Q-22" edge="1">
          <mxGeometry relative="1" as="geometry">
            <mxPoint x="340" y="210" as="sourcePoint" />
            <mxPoint x="500" y="210" as="targetPoint" />
          </mxGeometry>
        </mxCell>
        <mxCell id="Fy4e7EndvKac3T4AfF9Q-28" value="" style="endArrow=none;html=1;rounded=0;entryX=0.5;entryY=0;entryDx=0;entryDy=0;" parent="1" target="Fy4e7EndvKac3T4AfF9Q-23" edge="1">
          <mxGeometry relative="1" as="geometry">
            <mxPoint x="570" y="340" as="sourcePoint" />
            <mxPoint x="470" y="390" as="targetPoint" />
          </mxGeometry>
        </mxCell>
        <mxCell id="Fy4e7EndvKac3T4AfF9Q-29" value="" style="endArrow=none;html=1;rounded=0;exitX=0.5;exitY=0;exitDx=0;exitDy=0;entryX=0.5;entryY=1;entryDx=0;entryDy=0;" parent="1" source="Fy4e7EndvKac3T4AfF9Q-24" target="CP_bmAPizi7PvoLeCJPH-4" edge="1">
          <mxGeometry relative="1" as="geometry">
            <mxPoint x="590" y="360" as="sourcePoint" />
            <mxPoint x="480" y="400" as="targetPoint" />
          </mxGeometry>
        </mxCell>
        <mxCell id="Fy4e7EndvKac3T4AfF9Q-30" value="" style="endArrow=none;html=1;rounded=0;exitX=0.5;exitY=1;exitDx=0;exitDy=0;entryX=0.5;entryY=0;entryDx=0;entryDy=0;" parent="1" source="Fy4e7EndvKac3T4AfF9Q-23" target="Fy4e7EndvKac3T4AfF9Q-26" edge="1">
          <mxGeometry relative="1" as="geometry">
            <mxPoint x="600" y="370" as="sourcePoint" />
            <mxPoint x="490" y="410" as="targetPoint" />
          </mxGeometry>
        </mxCell>
        <mxCell id="Fy4e7EndvKac3T4AfF9Q-31" value="matrícula" style="ellipse;whiteSpace=wrap;html=1;align=center;fontStyle=4;fillColor=#dae8fc;strokeColor=#6c8ebf;" parent="1" vertex="1">
          <mxGeometry x="670" y="24" width="100" height="40" as="geometry" />
        </mxCell>
        <mxCell id="Fy4e7EndvKac3T4AfF9Q-32" value="modelo" style="ellipse;whiteSpace=wrap;html=1;align=center;" parent="1" vertex="1">
          <mxGeometry x="670" y="74" width="100" height="40" as="geometry" />
        </mxCell>
        <mxCell id="Fy4e7EndvKac3T4AfF9Q-33" value="potencia" style="ellipse;whiteSpace=wrap;html=1;align=center;" parent="1" vertex="1">
          <mxGeometry x="670" y="126" width="100" height="40" as="geometry" />
        </mxCell>
        <mxCell id="Fy4e7EndvKac3T4AfF9Q-34" value="tipo" style="ellipse;whiteSpace=wrap;html=1;align=center;" parent="1" vertex="1">
          <mxGeometry x="670" y="176" width="100" height="40" as="geometry" />
        </mxCell>
        <mxCell id="Fy4e7EndvKac3T4AfF9Q-35" value="" style="endArrow=none;html=1;rounded=0;entryX=1;entryY=0.5;entryDx=0;entryDy=0;exitX=0;exitY=0.5;exitDx=0;exitDy=0;" parent="1" source="Fy4e7EndvKac3T4AfF9Q-32" target="CP_bmAPizi7PvoLeCJPH-2" edge="1">
          <mxGeometry relative="1" as="geometry">
            <mxPoint x="340" y="210" as="sourcePoint" />
            <mxPoint x="500" y="210" as="targetPoint" />
          </mxGeometry>
        </mxCell>
        <mxCell id="Fy4e7EndvKac3T4AfF9Q-37" value="" style="endArrow=none;html=1;rounded=0;entryX=1;entryY=0.5;entryDx=0;entryDy=0;exitX=0;exitY=0.5;exitDx=0;exitDy=0;" parent="1" source="Fy4e7EndvKac3T4AfF9Q-31" target="CP_bmAPizi7PvoLeCJPH-2" edge="1">
          <mxGeometry relative="1" as="geometry">
            <mxPoint x="340" y="210" as="sourcePoint" />
            <mxPoint x="500" y="210" as="targetPoint" />
          </mxGeometry>
        </mxCell>
        <mxCell id="Fy4e7EndvKac3T4AfF9Q-38" value="" style="endArrow=none;html=1;rounded=0;entryX=1;entryY=0.5;entryDx=0;entryDy=0;exitX=0;exitY=0.5;exitDx=0;exitDy=0;" parent="1" source="Fy4e7EndvKac3T4AfF9Q-33" target="CP_bmAPizi7PvoLeCJPH-2" edge="1">
          <mxGeometry relative="1" as="geometry">
            <mxPoint x="680" y="54" as="sourcePoint" />
            <mxPoint x="630" y="130" as="targetPoint" />
          </mxGeometry>
        </mxCell>
        <mxCell id="Fy4e7EndvKac3T4AfF9Q-39" value="" style="endArrow=none;html=1;rounded=0;exitX=0;exitY=0.5;exitDx=0;exitDy=0;" parent="1" source="Fy4e7EndvKac3T4AfF9Q-34" edge="1">
          <mxGeometry relative="1" as="geometry">
            <mxPoint x="690" y="64" as="sourcePoint" />
            <mxPoint x="620" y="120" as="targetPoint" />
          </mxGeometry>
        </mxCell>
        <mxCell id="Fy4e7EndvKac3T4AfF9Q-41" value="(1:N)" style="text;strokeColor=none;fillColor=none;spacingLeft=4;spacingRight=4;overflow=hidden;rotatable=0;points=[[0,0.5],[1,0.5]];portConstraint=eastwest;fontSize=12;" parent="1" vertex="1">
          <mxGeometry x="480" y="290" width="40" height="30" as="geometry" />
        </mxCell>
        <mxCell id="Fy4e7EndvKac3T4AfF9Q-42" value="(1:1)&#xa;" style="text;strokeColor=none;fillColor=none;spacingLeft=4;spacingRight=4;overflow=hidden;rotatable=0;points=[[0,0.5],[1,0.5]];portConstraint=eastwest;fontSize=12;" parent="1" vertex="1">
          <mxGeometry x="270" y="240" width="40" height="30" as="geometry" />
        </mxCell>
        <mxCell id="Fy4e7EndvKac3T4AfF9Q-43" value="1:N" style="text;strokeColor=none;fillColor=none;spacingLeft=4;spacingRight=4;overflow=hidden;rotatable=0;points=[[0,0.5],[1,0.5]];portConstraint=eastwest;fontSize=12;" parent="1" vertex="1">
          <mxGeometry x="366" y="260" width="40" height="30" as="geometry" />
        </mxCell>
        <mxCell id="Fy4e7EndvKac3T4AfF9Q-46" value="(1:N)" style="text;strokeColor=none;fillColor=none;spacingLeft=4;spacingRight=4;overflow=hidden;rotatable=0;points=[[0,0.5],[1,0.5]];portConstraint=eastwest;fontSize=12;" parent="1" vertex="1">
          <mxGeometry x="480" y="90" width="40" height="30" as="geometry" />
        </mxCell>
        <mxCell id="Fy4e7EndvKac3T4AfF9Q-47" value="(1:N)" style="text;strokeColor=none;fillColor=none;spacingLeft=4;spacingRight=4;overflow=hidden;rotatable=0;points=[[0,0.5],[1,0.5]];portConstraint=eastwest;fontSize=12;" parent="1" vertex="1">
          <mxGeometry x="270" y="166" width="40" height="30" as="geometry" />
        </mxCell>
        <mxCell id="Fy4e7EndvKac3T4AfF9Q-48" value="N:M" style="text;strokeColor=none;fillColor=none;spacingLeft=4;spacingRight=4;overflow=hidden;rotatable=0;points=[[0,0.5],[1,0.5]];portConstraint=eastwest;fontSize=12;" parent="1" vertex="1">
          <mxGeometry x="365" y="60" width="40" height="30" as="geometry" />
        </mxCell>
        <mxCell id="4BA60Yg3lpegi8aazmhk-1" value="fecha" style="ellipse;whiteSpace=wrap;html=1;align=center;" vertex="1" parent="1">
          <mxGeometry x="340" y="170" width="100" height="40" as="geometry" />
        </mxCell>
        <mxCell id="4BA60Yg3lpegi8aazmhk-2" value="" style="endArrow=none;html=1;rounded=0;entryX=0.5;entryY=1;entryDx=0;entryDy=0;" edge="1" parent="1" target="CP_bmAPizi7PvoLeCJPH-6">
          <mxGeometry width="50" height="50" relative="1" as="geometry">
            <mxPoint x="390" y="170" as="sourcePoint" />
            <mxPoint x="430" y="350" as="targetPoint" />
          </mxGeometry>
        </mxCell>
      </root>
    </mxGraphModel>
  </diagram>
</mxfile>
